<mxfile host="app.diagrams.net" modified="2024-06-09T12:56:53.902Z" agent="Mozilla/5.0 (Windows NT 10.0; Win64; x64; rv:126.0) Gecko/20100101 Firefox/126.0" etag="EkXBkDx-CLxoDrquyT9g" version="24.5.2" type="device">
  <diagram name="Page-1" id="9f46799a-70d6-7492-0946-bef42562c5a5">
    <mxGraphModel dx="2074" dy="1057" grid="1" gridSize="10" guides="1" tooltips="1" connect="1" arrows="1" fold="1" page="1" pageScale="1" pageWidth="827" pageHeight="1169" background="none" math="0" shadow="0">
      <root>
        <mxCell id="0" />
        <mxCell id="1" parent="0" />
        <mxCell id="78961159f06e98e8-17" value="BluetoothClassicManager" style="swimlane;html=1;fontStyle=1;align=center;verticalAlign=top;childLayout=stackLayout;horizontal=1;startSize=30;horizontalStack=0;resizeParent=1;resizeLast=0;collapsible=1;marginBottom=0;swimlaneFillColor=#ffffff;rounded=0;shadow=0;comic=0;labelBackgroundColor=none;strokeWidth=1;fillColor=none;fontFamily=Verdana;fontSize=16;" parent="1" vertex="1">
          <mxGeometry width="370" height="710" as="geometry" />
        </mxCell>
        <mxCell id="78961159f06e98e8-21" value="+ BluetoothManager: bluetoothManager" style="text;html=1;strokeColor=none;fillColor=none;align=left;verticalAlign=top;spacingLeft=4;spacingRight=4;whiteSpace=wrap;overflow=hidden;rotatable=0;points=[[0,0.5],[1,0.5]];portConstraint=eastwest;fontSize=16;" parent="78961159f06e98e8-17" vertex="1">
          <mxGeometry y="30" width="370" height="26" as="geometry" />
        </mxCell>
        <mxCell id="78961159f06e98e8-23" value="+ BluetoothAdapter: bluetoothAdapter" style="text;html=1;strokeColor=none;fillColor=none;align=left;verticalAlign=top;spacingLeft=4;spacingRight=4;whiteSpace=wrap;overflow=hidden;rotatable=0;points=[[0,0.5],[1,0.5]];portConstraint=eastwest;fontSize=16;" parent="78961159f06e98e8-17" vertex="1">
          <mxGeometry y="56" width="370" height="26" as="geometry" />
        </mxCell>
        <mxCell id="78961159f06e98e8-25" value="+ Context: context" style="text;html=1;strokeColor=none;fillColor=none;align=left;verticalAlign=top;spacingLeft=4;spacingRight=4;whiteSpace=wrap;overflow=hidden;rotatable=0;points=[[0,0.5],[1,0.5]];portConstraint=eastwest;fontSize=16;" parent="78961159f06e98e8-17" vertex="1">
          <mxGeometry y="82" width="370" height="26" as="geometry" />
        </mxCell>
        <mxCell id="78961159f06e98e8-24" value="+ String: NAME" style="text;html=1;strokeColor=none;fillColor=none;align=left;verticalAlign=top;spacingLeft=4;spacingRight=4;whiteSpace=wrap;overflow=hidden;rotatable=0;points=[[0,0.5],[1,0.5]];portConstraint=eastwest;fontSize=16;" parent="78961159f06e98e8-17" vertex="1">
          <mxGeometry y="108" width="370" height="26" as="geometry" />
        </mxCell>
        <mxCell id="rfIujgWQdadExlDQzemH-1" value="+ UUID: BLUETOOTH_UUID" style="text;html=1;strokeColor=none;fillColor=none;align=left;verticalAlign=top;spacingLeft=4;spacingRight=4;whiteSpace=wrap;overflow=hidden;rotatable=0;points=[[0,0.5],[1,0.5]];portConstraint=eastwest;fontSize=16;" parent="78961159f06e98e8-17" vertex="1">
          <mxGeometry y="134" width="370" height="26" as="geometry" />
        </mxCell>
        <mxCell id="rfIujgWQdadExlDQzemH-2" value="+ AcceptThread: acceptThread" style="text;html=1;strokeColor=none;fillColor=none;align=left;verticalAlign=top;spacingLeft=4;spacingRight=4;whiteSpace=wrap;overflow=hidden;rotatable=0;points=[[0,0.5],[1,0.5]];portConstraint=eastwest;fontSize=16;" parent="78961159f06e98e8-17" vertex="1">
          <mxGeometry y="160" width="370" height="26" as="geometry" />
        </mxCell>
        <mxCell id="rfIujgWQdadExlDQzemH-3" value="+ ConnectThread: connectThread" style="text;html=1;strokeColor=none;fillColor=none;align=left;verticalAlign=top;spacingLeft=4;spacingRight=4;whiteSpace=wrap;overflow=hidden;rotatable=0;points=[[0,0.5],[1,0.5]];portConstraint=eastwest;fontSize=16;" parent="78961159f06e98e8-17" vertex="1">
          <mxGeometry y="186" width="370" height="26" as="geometry" />
        </mxCell>
        <mxCell id="rfIujgWQdadExlDQzemH-4" value="+ Thread: readThread" style="text;html=1;strokeColor=none;fillColor=none;align=left;verticalAlign=top;spacingLeft=4;spacingRight=4;whiteSpace=wrap;overflow=hidden;rotatable=0;points=[[0,0.5],[1,0.5]];portConstraint=eastwest;fontSize=16;" parent="78961159f06e98e8-17" vertex="1">
          <mxGeometry y="212" width="370" height="26" as="geometry" />
        </mxCell>
        <mxCell id="rfIujgWQdadExlDQzemH-5" value="+ BluetoothClassicMessageListener: messageListener" style="text;html=1;strokeColor=none;fillColor=none;align=left;verticalAlign=top;spacingLeft=4;spacingRight=4;whiteSpace=wrap;overflow=hidden;rotatable=0;points=[[0,0.5],[1,0.5]];portConstraint=eastwest;fontSize=16;" parent="78961159f06e98e8-17" vertex="1">
          <mxGeometry y="238" width="370" height="46" as="geometry" />
        </mxCell>
        <mxCell id="rfIujgWQdadExlDQzemH-6" value="+ BluetoothClassicConnectionListener: connectionListener" style="text;html=1;strokeColor=none;fillColor=none;align=left;verticalAlign=top;spacingLeft=4;spacingRight=4;whiteSpace=wrap;overflow=hidden;rotatable=0;points=[[0,0.5],[1,0.5]];portConstraint=eastwest;fontSize=16;" parent="78961159f06e98e8-17" vertex="1">
          <mxGeometry y="284" width="370" height="50" as="geometry" />
        </mxCell>
        <mxCell id="rfIujgWQdadExlDQzemH-8" value="+ BluetoothSocket: socket" style="text;html=1;strokeColor=none;fillColor=none;align=left;verticalAlign=top;spacingLeft=4;spacingRight=4;whiteSpace=wrap;overflow=hidden;rotatable=0;points=[[0,0.5],[1,0.5]];portConstraint=eastwest;fontSize=16;" parent="78961159f06e98e8-17" vertex="1">
          <mxGeometry y="334" width="370" height="26" as="geometry" />
        </mxCell>
        <mxCell id="rfIujgWQdadExlDQzemH-9" value="+ BluetoothBroadcastReceiver: receiver" style="text;html=1;strokeColor=none;fillColor=none;align=left;verticalAlign=top;spacingLeft=4;spacingRight=4;whiteSpace=wrap;overflow=hidden;rotatable=0;points=[[0,0.5],[1,0.5]];portConstraint=eastwest;fontSize=16;" parent="78961159f06e98e8-17" vertex="1">
          <mxGeometry y="360" width="370" height="26" as="geometry" />
        </mxCell>
        <mxCell id="rfIujgWQdadExlDQzemH-7" value="+ Handler: mainHandler" style="text;html=1;strokeColor=none;fillColor=none;align=left;verticalAlign=top;spacingLeft=4;spacingRight=4;whiteSpace=wrap;overflow=hidden;rotatable=0;points=[[0,0.5],[1,0.5]];portConstraint=eastwest;fontSize=16;" parent="78961159f06e98e8-17" vertex="1">
          <mxGeometry y="386" width="370" height="26" as="geometry" />
        </mxCell>
        <mxCell id="rfIujgWQdadExlDQzemH-10" value="+ String: fullMessage" style="text;html=1;strokeColor=none;fillColor=none;align=left;verticalAlign=top;spacingLeft=4;spacingRight=4;whiteSpace=wrap;overflow=hidden;rotatable=0;points=[[0,0.5],[1,0.5]];portConstraint=eastwest;fontSize=16;" parent="78961159f06e98e8-17" vertex="1">
          <mxGeometry y="412" width="370" height="26" as="geometry" />
        </mxCell>
        <mxCell id="78961159f06e98e8-19" value="" style="line;html=1;strokeWidth=1;fillColor=none;align=left;verticalAlign=middle;spacingTop=-1;spacingLeft=3;spacingRight=3;rotatable=0;labelPosition=right;points=[];portConstraint=eastwest;fontSize=16;" parent="78961159f06e98e8-17" vertex="1">
          <mxGeometry y="438" width="370" height="8" as="geometry" />
        </mxCell>
        <mxCell id="78961159f06e98e8-20" value="+ BluetoothClassicManager(Context): BluetoothClassicManager" style="text;html=1;strokeColor=none;fillColor=none;align=left;verticalAlign=top;spacingLeft=4;spacingRight=4;whiteSpace=wrap;overflow=hidden;rotatable=0;points=[[0,0.5],[1,0.5]];portConstraint=eastwest;fontSize=16;" parent="78961159f06e98e8-17" vertex="1">
          <mxGeometry y="446" width="370" height="48" as="geometry" />
        </mxCell>
        <mxCell id="78961159f06e98e8-27" value="+ start(): void" style="text;html=1;strokeColor=none;fillColor=none;align=left;verticalAlign=top;spacingLeft=4;spacingRight=4;whiteSpace=wrap;overflow=hidden;rotatable=0;points=[[0,0.5],[1,0.5]];portConstraint=eastwest;fontSize=16;" parent="78961159f06e98e8-17" vertex="1">
          <mxGeometry y="494" width="370" height="26" as="geometry" />
        </mxCell>
        <mxCell id="rfIujgWQdadExlDQzemH-11" value="+ stop(): void" style="text;html=1;strokeColor=none;fillColor=none;align=left;verticalAlign=top;spacingLeft=4;spacingRight=4;whiteSpace=wrap;overflow=hidden;rotatable=0;points=[[0,0.5],[1,0.5]];portConstraint=eastwest;fontSize=16;" parent="78961159f06e98e8-17" vertex="1">
          <mxGeometry y="520" width="370" height="26" as="geometry" />
        </mxCell>
        <mxCell id="rfIujgWQdadExlDQzemH-12" value="+ getPairedDevices(): void" style="text;html=1;strokeColor=none;fillColor=none;align=left;verticalAlign=top;spacingLeft=4;spacingRight=4;whiteSpace=wrap;overflow=hidden;rotatable=0;points=[[0,0.5],[1,0.5]];portConstraint=eastwest;fontSize=16;" parent="78961159f06e98e8-17" vertex="1">
          <mxGeometry y="546" width="370" height="26" as="geometry" />
        </mxCell>
        <mxCell id="rfIujgWQdadExlDQzemH-13" value="+ manageBluetoothSocket(BluetoothSocket): void" style="text;html=1;strokeColor=none;fillColor=none;align=left;verticalAlign=top;spacingLeft=4;spacingRight=4;whiteSpace=wrap;overflow=hidden;rotatable=0;points=[[0,0.5],[1,0.5]];portConstraint=eastwest;fontSize=16;" parent="78961159f06e98e8-17" vertex="1">
          <mxGeometry y="572" width="370" height="26" as="geometry" />
        </mxCell>
        <mxCell id="rfIujgWQdadExlDQzemH-14" value="+ handleLongMessageRead(String): void" style="text;html=1;strokeColor=none;fillColor=none;align=left;verticalAlign=top;spacingLeft=4;spacingRight=4;whiteSpace=wrap;overflow=hidden;rotatable=0;points=[[0,0.5],[1,0.5]];portConstraint=eastwest;fontSize=16;" parent="78961159f06e98e8-17" vertex="1">
          <mxGeometry y="598" width="370" height="26" as="geometry" />
        </mxCell>
        <mxCell id="rfIujgWQdadExlDQzemH-15" value="+ startReading(): void" style="text;html=1;strokeColor=none;fillColor=none;align=left;verticalAlign=top;spacingLeft=4;spacingRight=4;whiteSpace=wrap;overflow=hidden;rotatable=0;points=[[0,0.5],[1,0.5]];portConstraint=eastwest;fontSize=16;" parent="78961159f06e98e8-17" vertex="1">
          <mxGeometry y="624" width="370" height="26" as="geometry" />
        </mxCell>
        <mxCell id="rfIujgWQdadExlDQzemH-16" value="+ sendMessage(String): void" style="text;html=1;strokeColor=none;fillColor=none;align=left;verticalAlign=top;spacingLeft=4;spacingRight=4;whiteSpace=wrap;overflow=hidden;rotatable=0;points=[[0,0.5],[1,0.5]];portConstraint=eastwest;fontSize=16;" parent="78961159f06e98e8-17" vertex="1">
          <mxGeometry y="650" width="370" height="26" as="geometry" />
        </mxCell>
        <mxCell id="rfIujgWQdadExlDQzemH-17" value="+ closeSocket(): void" style="text;html=1;strokeColor=none;fillColor=none;align=left;verticalAlign=top;spacingLeft=4;spacingRight=4;whiteSpace=wrap;overflow=hidden;rotatable=0;points=[[0,0.5],[1,0.5]];portConstraint=eastwest;fontSize=16;" parent="78961159f06e98e8-17" vertex="1">
          <mxGeometry y="676" width="370" height="34" as="geometry" />
        </mxCell>
        <mxCell id="8y1gOmT-ZaV0fz_II6b5-13" style="edgeStyle=orthogonalEdgeStyle;rounded=0;orthogonalLoop=1;jettySize=auto;html=1;dashed=1;fontSize=16;" parent="1" source="rfIujgWQdadExlDQzemH-18" target="rfIujgWQdadExlDQzemH-48" edge="1">
          <mxGeometry relative="1" as="geometry" />
        </mxCell>
        <mxCell id="8y1gOmT-ZaV0fz_II6b5-14" value="Extends" style="edgeLabel;html=1;align=center;verticalAlign=middle;resizable=0;points=[];fontSize=16;" parent="8y1gOmT-ZaV0fz_II6b5-13" vertex="1" connectable="0">
          <mxGeometry x="-0.1722" y="1" relative="1" as="geometry">
            <mxPoint as="offset" />
          </mxGeometry>
        </mxCell>
        <mxCell id="rfIujgWQdadExlDQzemH-18" value="BluetoothBroadcastReceiver" style="swimlane;html=1;fontStyle=1;align=center;verticalAlign=top;childLayout=stackLayout;horizontal=1;startSize=30;horizontalStack=0;resizeParent=1;resizeLast=0;collapsible=1;marginBottom=0;swimlaneFillColor=#ffffff;rounded=0;shadow=0;comic=0;labelBackgroundColor=none;strokeWidth=1;fillColor=none;fontFamily=Verdana;fontSize=16;" parent="1" vertex="1">
          <mxGeometry x="457" y="625" width="370" height="74" as="geometry" />
        </mxCell>
        <mxCell id="rfIujgWQdadExlDQzemH-33" value="" style="line;html=1;strokeWidth=1;fillColor=none;align=left;verticalAlign=middle;spacingTop=-1;spacingLeft=3;spacingRight=3;rotatable=0;labelPosition=right;points=[];portConstraint=eastwest;fontSize=16;" parent="rfIujgWQdadExlDQzemH-18" vertex="1">
          <mxGeometry y="30" width="370" height="8" as="geometry" />
        </mxCell>
        <mxCell id="rfIujgWQdadExlDQzemH-42" value="+ onReceive(Context, Intent): void" style="text;html=1;strokeColor=none;fillColor=none;align=left;verticalAlign=top;spacingLeft=4;spacingRight=4;whiteSpace=wrap;overflow=hidden;rotatable=0;points=[[0,0.5],[1,0.5]];portConstraint=eastwest;fontSize=16;" parent="rfIujgWQdadExlDQzemH-18" vertex="1">
          <mxGeometry y="38" width="370" height="36" as="geometry" />
        </mxCell>
        <mxCell id="8y1gOmT-ZaV0fz_II6b5-8" style="edgeStyle=orthogonalEdgeStyle;rounded=0;orthogonalLoop=1;jettySize=auto;html=1;curved=0;dashed=1;fontSize=16;" parent="1" source="rfIujgWQdadExlDQzemH-43" target="rfIujgWQdadExlDQzemH-67" edge="1">
          <mxGeometry relative="1" as="geometry" />
        </mxCell>
        <mxCell id="8y1gOmT-ZaV0fz_II6b5-10" value="Extends" style="edgeLabel;html=1;align=center;verticalAlign=middle;resizable=0;points=[];fontSize=16;" parent="8y1gOmT-ZaV0fz_II6b5-8" vertex="1" connectable="0">
          <mxGeometry x="-0.4273" y="2" relative="1" as="geometry">
            <mxPoint x="-2" y="4" as="offset" />
          </mxGeometry>
        </mxCell>
        <mxCell id="rfIujgWQdadExlDQzemH-43" value="AcceptThread" style="swimlane;html=1;fontStyle=1;align=center;verticalAlign=top;childLayout=stackLayout;horizontal=1;startSize=30;horizontalStack=0;resizeParent=1;resizeLast=0;collapsible=1;marginBottom=0;swimlaneFillColor=#ffffff;rounded=0;shadow=0;comic=0;labelBackgroundColor=none;strokeWidth=1;fillColor=none;fontFamily=Verdana;fontSize=16;" parent="1" vertex="1">
          <mxGeometry x="417" width="410" height="200" as="geometry" />
        </mxCell>
        <mxCell id="rfIujgWQdadExlDQzemH-44" value="+ BluetoothServerSocket: mmServerSocket" style="text;html=1;strokeColor=none;fillColor=none;align=left;verticalAlign=top;spacingLeft=4;spacingRight=4;whiteSpace=wrap;overflow=hidden;rotatable=0;points=[[0,0.5],[1,0.5]];portConstraint=eastwest;fontSize=16;" parent="rfIujgWQdadExlDQzemH-43" vertex="1">
          <mxGeometry y="30" width="410" height="26" as="geometry" />
        </mxCell>
        <mxCell id="rfIujgWQdadExlDQzemH-53" value="+ BluetoothClassicManager: bluetoothClassicManager" style="text;html=1;strokeColor=none;fillColor=none;align=left;verticalAlign=top;spacingLeft=4;spacingRight=4;whiteSpace=wrap;overflow=hidden;rotatable=0;points=[[0,0.5],[1,0.5]];portConstraint=eastwest;fontSize=16;" parent="rfIujgWQdadExlDQzemH-43" vertex="1">
          <mxGeometry y="56" width="410" height="26" as="geometry" />
        </mxCell>
        <mxCell id="rfIujgWQdadExlDQzemH-45" value="" style="line;html=1;strokeWidth=1;fillColor=none;align=left;verticalAlign=middle;spacingTop=-1;spacingLeft=3;spacingRight=3;rotatable=0;labelPosition=right;points=[];portConstraint=eastwest;fontSize=16;" parent="rfIujgWQdadExlDQzemH-43" vertex="1">
          <mxGeometry y="82" width="410" height="8" as="geometry" />
        </mxCell>
        <mxCell id="rfIujgWQdadExlDQzemH-46" value="+ AcceptThread(String, UUID, BluetoothClassicManager): AcceptThread" style="text;html=1;strokeColor=none;fillColor=none;align=left;verticalAlign=top;spacingLeft=4;spacingRight=4;whiteSpace=wrap;overflow=hidden;rotatable=0;points=[[0,0.5],[1,0.5]];portConstraint=eastwest;fontSize=16;" parent="rfIujgWQdadExlDQzemH-43" vertex="1">
          <mxGeometry y="90" width="410" height="50" as="geometry" />
        </mxCell>
        <mxCell id="rfIujgWQdadExlDQzemH-54" value="+ run(): void" style="text;html=1;strokeColor=none;fillColor=none;align=left;verticalAlign=top;spacingLeft=4;spacingRight=4;whiteSpace=wrap;overflow=hidden;rotatable=0;points=[[0,0.5],[1,0.5]];portConstraint=eastwest;fontSize=16;" parent="rfIujgWQdadExlDQzemH-43" vertex="1">
          <mxGeometry y="140" width="410" height="26" as="geometry" />
        </mxCell>
        <mxCell id="rfIujgWQdadExlDQzemH-55" value="+ cancel(): void" style="text;html=1;strokeColor=none;fillColor=none;align=left;verticalAlign=top;spacingLeft=4;spacingRight=4;whiteSpace=wrap;overflow=hidden;rotatable=0;points=[[0,0.5],[1,0.5]];portConstraint=eastwest;fontSize=16;" parent="rfIujgWQdadExlDQzemH-43" vertex="1">
          <mxGeometry y="166" width="410" height="34" as="geometry" />
        </mxCell>
        <mxCell id="rfIujgWQdadExlDQzemH-48" value="BroadcastReceiver" style="swimlane;html=1;fontStyle=1;align=center;verticalAlign=top;childLayout=stackLayout;horizontal=1;startSize=30;horizontalStack=0;resizeParent=1;resizeLast=0;collapsible=1;marginBottom=0;swimlaneFillColor=#ffffff;rounded=0;shadow=0;comic=0;labelBackgroundColor=none;strokeWidth=1;fillColor=none;fontFamily=Verdana;fontSize=16;" parent="1" vertex="1">
          <mxGeometry x="457" y="730" width="370" height="74" as="geometry" />
        </mxCell>
        <mxCell id="rfIujgWQdadExlDQzemH-49" value="" style="line;html=1;strokeWidth=1;fillColor=none;align=left;verticalAlign=middle;spacingTop=-1;spacingLeft=3;spacingRight=3;rotatable=0;labelPosition=right;points=[];portConstraint=eastwest;fontSize=16;" parent="rfIujgWQdadExlDQzemH-48" vertex="1">
          <mxGeometry y="30" width="370" height="8" as="geometry" />
        </mxCell>
        <mxCell id="rfIujgWQdadExlDQzemH-50" value="+ onReceive(): void" style="text;html=1;strokeColor=none;fillColor=none;align=left;verticalAlign=top;spacingLeft=4;spacingRight=4;whiteSpace=wrap;overflow=hidden;rotatable=0;points=[[0,0.5],[1,0.5]];portConstraint=eastwest;fontSize=16;" parent="rfIujgWQdadExlDQzemH-48" vertex="1">
          <mxGeometry y="38" width="370" height="36" as="geometry" />
        </mxCell>
        <mxCell id="8y1gOmT-ZaV0fz_II6b5-9" style="edgeStyle=orthogonalEdgeStyle;rounded=0;orthogonalLoop=1;jettySize=auto;html=1;dashed=1;fontSize=16;" parent="1" source="rfIujgWQdadExlDQzemH-58" target="rfIujgWQdadExlDQzemH-67" edge="1">
          <mxGeometry relative="1" as="geometry" />
        </mxCell>
        <mxCell id="8y1gOmT-ZaV0fz_II6b5-11" value="Extends" style="edgeLabel;html=1;align=center;verticalAlign=middle;resizable=0;points=[];fontSize=16;" parent="8y1gOmT-ZaV0fz_II6b5-9" vertex="1" connectable="0">
          <mxGeometry x="0.3" relative="1" as="geometry">
            <mxPoint y="10" as="offset" />
          </mxGeometry>
        </mxCell>
        <mxCell id="rfIujgWQdadExlDQzemH-58" value="ConnectThread" style="swimlane;html=1;fontStyle=1;align=center;verticalAlign=top;childLayout=stackLayout;horizontal=1;startSize=30;horizontalStack=0;resizeParent=1;resizeLast=0;collapsible=1;marginBottom=0;swimlaneFillColor=#ffffff;rounded=0;shadow=0;comic=0;labelBackgroundColor=none;strokeWidth=1;fillColor=none;fontFamily=Verdana;fontSize=16;" parent="1" vertex="1">
          <mxGeometry x="417" y="391" width="410" height="206" as="geometry" />
        </mxCell>
        <mxCell id="rfIujgWQdadExlDQzemH-59" value="+ BluetoothSocket: mmSocket" style="text;html=1;strokeColor=none;fillColor=none;align=left;verticalAlign=top;spacingLeft=4;spacingRight=4;whiteSpace=wrap;overflow=hidden;rotatable=0;points=[[0,0.5],[1,0.5]];portConstraint=eastwest;fontSize=16;" parent="rfIujgWQdadExlDQzemH-58" vertex="1">
          <mxGeometry y="30" width="410" height="26" as="geometry" />
        </mxCell>
        <mxCell id="rfIujgWQdadExlDQzemH-66" value="+ BluetoothDevice: mmDevice" style="text;html=1;strokeColor=none;fillColor=none;align=left;verticalAlign=top;spacingLeft=4;spacingRight=4;whiteSpace=wrap;overflow=hidden;rotatable=0;points=[[0,0.5],[1,0.5]];portConstraint=eastwest;fontSize=16;" parent="rfIujgWQdadExlDQzemH-58" vertex="1">
          <mxGeometry y="56" width="410" height="26" as="geometry" />
        </mxCell>
        <mxCell id="rfIujgWQdadExlDQzemH-60" value="+ BluetoothClassicManager: bluetoothClassicManager" style="text;html=1;strokeColor=none;fillColor=none;align=left;verticalAlign=top;spacingLeft=4;spacingRight=4;whiteSpace=wrap;overflow=hidden;rotatable=0;points=[[0,0.5],[1,0.5]];portConstraint=eastwest;fontSize=16;" parent="rfIujgWQdadExlDQzemH-58" vertex="1">
          <mxGeometry y="82" width="410" height="26" as="geometry" />
        </mxCell>
        <mxCell id="rfIujgWQdadExlDQzemH-61" value="" style="line;html=1;strokeWidth=1;fillColor=none;align=left;verticalAlign=middle;spacingTop=-1;spacingLeft=3;spacingRight=3;rotatable=0;labelPosition=right;points=[];portConstraint=eastwest;fontSize=16;" parent="rfIujgWQdadExlDQzemH-58" vertex="1">
          <mxGeometry y="108" width="410" height="8" as="geometry" />
        </mxCell>
        <mxCell id="rfIujgWQdadExlDQzemH-62" value="+ ConnectThread(BluetoothDevice, UUID, BluetoothClassicManager): ConnectThread" style="text;html=1;strokeColor=none;fillColor=none;align=left;verticalAlign=top;spacingLeft=4;spacingRight=4;whiteSpace=wrap;overflow=hidden;rotatable=0;points=[[0,0.5],[1,0.5]];portConstraint=eastwest;fontSize=16;" parent="rfIujgWQdadExlDQzemH-58" vertex="1">
          <mxGeometry y="116" width="410" height="38" as="geometry" />
        </mxCell>
        <mxCell id="rfIujgWQdadExlDQzemH-63" value="+ run(): void" style="text;html=1;strokeColor=none;fillColor=none;align=left;verticalAlign=top;spacingLeft=4;spacingRight=4;whiteSpace=wrap;overflow=hidden;rotatable=0;points=[[0,0.5],[1,0.5]];portConstraint=eastwest;fontSize=16;" parent="rfIujgWQdadExlDQzemH-58" vertex="1">
          <mxGeometry y="154" width="410" height="26" as="geometry" />
        </mxCell>
        <mxCell id="rfIujgWQdadExlDQzemH-64" value="+ cancel(): void" style="text;html=1;strokeColor=none;fillColor=none;align=left;verticalAlign=top;spacingLeft=4;spacingRight=4;whiteSpace=wrap;overflow=hidden;rotatable=0;points=[[0,0.5],[1,0.5]];portConstraint=eastwest;fontSize=16;" parent="rfIujgWQdadExlDQzemH-58" vertex="1">
          <mxGeometry y="180" width="410" height="26" as="geometry" />
        </mxCell>
        <mxCell id="rfIujgWQdadExlDQzemH-67" value="Thread" style="swimlane;html=1;fontStyle=1;align=center;verticalAlign=top;childLayout=stackLayout;horizontal=1;startSize=30;horizontalStack=0;resizeParent=1;resizeLast=0;collapsible=1;marginBottom=0;swimlaneFillColor=#ffffff;rounded=0;shadow=0;comic=0;labelBackgroundColor=none;strokeWidth=1;fillColor=none;fontFamily=Verdana;fontSize=16;" parent="1" vertex="1">
          <mxGeometry x="417" y="249" width="410" height="92" as="geometry" />
        </mxCell>
        <mxCell id="rfIujgWQdadExlDQzemH-71" value="" style="line;html=1;strokeWidth=1;fillColor=none;align=left;verticalAlign=middle;spacingTop=-1;spacingLeft=3;spacingRight=3;rotatable=0;labelPosition=right;points=[];portConstraint=eastwest;fontSize=16;" parent="rfIujgWQdadExlDQzemH-67" vertex="1">
          <mxGeometry y="30" width="410" height="8" as="geometry" />
        </mxCell>
        <mxCell id="rfIujgWQdadExlDQzemH-73" value="+ run(): void" style="text;html=1;strokeColor=none;fillColor=none;align=left;verticalAlign=top;spacingLeft=4;spacingRight=4;whiteSpace=wrap;overflow=hidden;rotatable=0;points=[[0,0.5],[1,0.5]];portConstraint=eastwest;fontSize=16;" parent="rfIujgWQdadExlDQzemH-67" vertex="1">
          <mxGeometry y="38" width="410" height="26" as="geometry" />
        </mxCell>
        <mxCell id="rfIujgWQdadExlDQzemH-74" value="+ cancel(): void" style="text;html=1;strokeColor=none;fillColor=none;align=left;verticalAlign=top;spacingLeft=4;spacingRight=4;whiteSpace=wrap;overflow=hidden;rotatable=0;points=[[0,0.5],[1,0.5]];portConstraint=eastwest;fontSize=16;" parent="rfIujgWQdadExlDQzemH-67" vertex="1">
          <mxGeometry y="64" width="410" height="26" as="geometry" />
        </mxCell>
        <mxCell id="8y1gOmT-ZaV0fz_II6b5-4" style="edgeStyle=orthogonalEdgeStyle;rounded=0;orthogonalLoop=1;jettySize=auto;html=1;fontSize=16;entryX=0;entryY=0.517;entryDx=0;entryDy=0;entryPerimeter=0;" parent="1" source="rfIujgWQdadExlDQzemH-2" target="rfIujgWQdadExlDQzemH-45" edge="1">
          <mxGeometry relative="1" as="geometry" />
        </mxCell>
        <mxCell id="8y1gOmT-ZaV0fz_II6b5-6" style="edgeStyle=orthogonalEdgeStyle;rounded=0;orthogonalLoop=1;jettySize=auto;html=1;entryX=0;entryY=0.486;entryDx=0;entryDy=0;entryPerimeter=0;fontSize=16;" parent="1" source="rfIujgWQdadExlDQzemH-3" target="rfIujgWQdadExlDQzemH-61" edge="1">
          <mxGeometry relative="1" as="geometry">
            <mxPoint x="400" y="420" as="targetPoint" />
          </mxGeometry>
        </mxCell>
        <mxCell id="1iXpiDs99ng7gjK0pJAV-2" style="edgeStyle=orthogonalEdgeStyle;rounded=0;orthogonalLoop=1;jettySize=auto;html=1;" parent="1" source="rfIujgWQdadExlDQzemH-9" target="rfIujgWQdadExlDQzemH-33" edge="1">
          <mxGeometry relative="1" as="geometry">
            <Array as="points">
              <mxPoint x="380" y="373" />
              <mxPoint x="380" y="659" />
            </Array>
          </mxGeometry>
        </mxCell>
      </root>
    </mxGraphModel>
  </diagram>
</mxfile>
